# xmcd
#
# Track frame offsets:
#	150
#	17851
#	42007
#	59513
#	83644
#	94836
#	135491
#	154870
#
# Disc length: 2428 seconds
#
# Revision: 1
# Processed by: cddbd v1.5.1PL2 Copyright (c) Steve Scherf et al.
# Submitted via: audiograbber 1.83.01
#
DISCID=5d097a08
DTITLE=Календарь - Навстречу Зимнему Солнцу
DYEAR=2005
DGENRE=Country
TTITLE0=Кормчий
TTITLE1=Былина
TTITLE2=Ночь_щедра
TTITLE3=Самайн
TTITLE4=Смотри!Это_ветер
TTITLE5=Восхождение_Белой_Луны
TTITLE6=Черной_вязью
TTITLE7=Купала
EXTD=
EXTT0=
EXTT1=
EXTT2=
EXTT3=
EXTT4=
EXTT5=
EXTT6=
EXTT7=
PLAYORDER=
